<svg xmlns="http://www.w3.org/2000/svg" width="57" height="41" viewBox="0 0 57 41">
  <g id="Component_1_1" data-name="Component 1 – 1" transform="translate(0.5 0.5)">
    <path id="Union_1" data-name="Union 1" d="M40.05,40.469H18.184Q17.6,40.5,17,40.5C7.888,40.5.5,34.9.5,28c0-5.456,4.615-10.1,11.049-11.8Q11.5,15.606,11.5,15A14.5,14.5,0,0,1,37.976,6.823,14.246,14.246,0,0,1,41,6.5c8.56,0,15.5,7.611,15.5,17s-6.94,17-15.5,17Q40.522,40.5,40.05,40.469Z" transform="translate(-0.5 -0.5)" fill="#fff" stroke="#000" stroke-width="1"/>
    <circle id="Ellipse_4" data-name="Ellipse 4" cx="2" cy="2" r="2" transform="translate(15.5 14.5)"/>
    <circle id="Ellipse_5" data-name="Ellipse 5" cx="2" cy="2" r="2" transform="translate(30.5 14.5)"/>
    <path id="Path_2" data-name="Path 2" d="M29.121,31.5a6.569,6.569,0,0,0,2.844.949A4.257,4.257,0,0,0,34.4,31.5" transform="translate(-6.5 -11.5)" fill="none" stroke="#000" stroke-linecap="round" stroke-width="1"/>
    <ellipse id="Ellipse_6" data-name="Ellipse 6" cx="2" cy="1" rx="2" ry="1" transform="translate(13.5 18.5)" fill="#ffdede"/>
    <ellipse id="Ellipse_7" data-name="Ellipse 7" cx="2" cy="1" rx="2" ry="1" transform="translate(33.5 18.5)" fill="#ffdede"/>
    <circle id="Ellipse_8" data-name="Ellipse 8" cx="0.5" cy="0.5" r="0.5" transform="translate(15.5 15.5)" fill="#fff"/>
    <circle id="Ellipse_9" data-name="Ellipse 9" cx="0.5" cy="0.5" r="0.5" transform="translate(30.5 15.5)" fill="#fff"/>
  </g>
</svg>
